<svg id="Layer_1" data-name="Layer 1" xmlns="http://www.w3.org/2000/svg" viewBox="0 0 60.51 22.98"><defs><style>.cls-1{font-size:5.48px;font-family:Cinzel-Bold, Cinzel;font-weight:700;}.cls-1,.cls-16{fill:#fff;}.cls-2{letter-spacing:-0.01em;}.cls-3{letter-spacing:-0.06em;}.cls-4{letter-spacing:-0.06em;}.cls-5{letter-spacing:0.01em;}.cls-6{letter-spacing:0em;}.cls-7{letter-spacing:0.01em;}.cls-8{letter-spacing:-0.01em;}.cls-9{letter-spacing:-0.01em;}.cls-10{letter-spacing:0.01em;}.cls-11{letter-spacing:-0.01em;}.cls-12{letter-spacing:0em;}.cls-13{letter-spacing:0.03em;}.cls-14{fill:#f5bf18;}.cls-15{fill:#faa71a;}.cls-17{fill:#f1c119;}</style></defs><text class="cls-1" transform="translate(26.74 6.2)"><tspan class="cls-2">R</tspan><tspan x="4.02" y="0">eal E</tspan><tspan class="cls-2" x="18.46" y="0">s</tspan><tspan class="cls-3" x="21.21" y="0">t</tspan><tspan class="cls-4" x="24.15" y="0">a</tspan><tspan class="cls-5" x="27.36" y="0">t</tspan><tspan class="cls-6" x="30.69" y="0">e</tspan><tspan class="cls-7"><tspan x="0" y="7.4">D</tspan><tspan class="cls-8" x="4.57" y="7.4">o</tspan><tspan class="cls-6" x="8.79" y="7.4">mi</tspan><tspan class="cls-9" x="15.44" y="7.4">n</tspan><tspan class="cls-2" x="19.66" y="7.4">o</tspan><tspan class="cls-6" x="23.85" y="7.4">es</tspan></tspan><tspan x="0" y="14.8">S</tspan><tspan class="cls-10" x="3.17" y="14.8">o</tspan><tspan x="7.48" y="14.8">c</tspan><tspan class="cls-11" x="11.22" y="14.8">i</tspan><tspan class="cls-12" x="13.11" y="14.8">e</tspan><tspan class="cls-13" x="16.21" y="14.8">t</tspan><tspan x="19.65" y="14.8">y</tspan></text><path class="cls-14" d="M62.7,25.63l-6.5-1-2.24-6,.24-2.4A1.38,1.38,0,0,1,55.78,15L63,16.17a1.22,1.22,0,0,1,1,1.39Z" transform="translate(-42.56 -14.6)"/><path class="cls-15" d="M62.12,25.54l-5.92-.93-2.25-6,.25-2.4A1.35,1.35,0,0,1,55.7,15l6.78,1.07a1.18,1.18,0,0,1,.94,1.38Z" transform="translate(-42.56 -14.6)"/><path class="cls-16" d="M44.91,15.62h7.22A1.39,1.39,0,0,1,53.52,17v8.3a0,0,0,0,1,0,0h-10a0,0,0,0,1,0,0V17a1.39,1.39,0,0,1,1.39-1.39Z" transform="translate(-46.63 3.21) rotate(-19.98)"/><path class="cls-17" d="M45.55,15.51h6.56A1.39,1.39,0,0,1,53.5,16.9v8.3a0,0,0,0,1,0,0H44.16a0,0,0,0,1,0,0V16.9a1.39,1.39,0,0,1,1.39-1.39Z" transform="translate(-46.57 3.31) rotate(-19.98)"/><path class="cls-15" d="M45.57,15.6h6A1.39,1.39,0,0,1,53,17v8.3a0,0,0,0,1,0,0H44.18a0,0,0,0,1,0,0V17a1.39,1.39,0,0,1,1.39-1.39Z" transform="translate(-46.62 3.23) rotate(-19.98)"/><path class="cls-16" d="M47.14,25.69h9.24a0,0,0,0,1,0,0v8.58a.86.86,0,0,1-.86.86H48a.86.86,0,0,1-.86-.86V25.69A0,0,0,0,1,47.14,25.69Z" transform="translate(-49.84 4.92) rotate(-19.98)"/><path class="cls-14" d="M48,25.42h9a0,0,0,0,1,0,0V34a.86.86,0,0,1-.86.86H48.87A.86.86,0,0,1,48,34V25.42A0,0,0,0,1,48,25.42Z" transform="translate(-49.7 5.16) rotate(-19.98)"/><path class="cls-15" d="M47.8,25.58h8.56a0,0,0,0,1,0,0v8.58a.86.86,0,0,1-.86.86H48.66a.86.86,0,0,1-.86-.86V25.58A0,0,0,0,1,47.8,25.58Z" transform="translate(-49.78 5.02) rotate(-19.98)"/><path class="cls-14" d="M59.59,35.73l-4.52-.68c1.28-.36,2.48-.15,3.48-.93a2.74,2.74,0,0,0,.85-2.83c-.72-2-2.18-3.68-2.9-5.65l6,.94L61,34.75A1.24,1.24,0,0,1,59.59,35.73Z" transform="translate(-42.56 -14.6)"/><path class="cls-15" d="M59,35.65l-4-.6a11.74,11.74,0,0,0,3.22-1.16c.37-.24.84-.83.46-2.39-.6-2-1.52-3.93-2.28-5.87l5.32.83-1.47,8.18A1.18,1.18,0,0,1,59,35.65Z" transform="translate(-42.56 -14.6)"/><path class="cls-16" d="M42.87,19.45a.49.49,0,0,1,.06.26.45.45,0,0,1-.31.36l.35.76a.42.42,0,0,1,.28,0,.39.39,0,0,1,.24.37.45.45,0,0,1,0,.18.43.43,0,0,1-.23.21l.24.71a.56.56,0,0,1,.28.06.6.6,0,0,1,.32.4l1.41,4,.18-.06-2.83-8.08Z" transform="translate(-42.56 -14.6)"/><circle cx="13.52" cy="2.35" r="1.1"/><circle class="cls-16" cx="13.48" cy="2.35" r="0.36"/><circle cx="7.89" cy="2.23" r="1.1"/><circle class="cls-16" cx="7.85" cy="2.23" r="0.36"/><circle cx="9.88" cy="7.63" r="1.1"/><circle class="cls-16" cx="9.84" cy="7.63" r="0.36"/><circle cx="15.93" cy="5.5" r="1.1"/><circle class="cls-16" cx="15.89" cy="5.5" r="0.36"/><circle cx="19.52" cy="3.45" r="1.1"/><circle class="cls-16" cx="19.48" cy="3.45" r="0.36"/><circle cx="18.55" cy="9.1" r="1.1"/><circle class="cls-16" cx="18.51" cy="9.1" r="0.36"/><circle cx="17.62" cy="13.5" r="1.1"/><circle class="cls-16" cx="17.58" cy="13.5" r="0.36"/><circle cx="11.4" cy="11.98" r="1.1"/><circle class="cls-16" cx="11.36" cy="11.98" r="0.36"/><circle cx="13.45" cy="17.32" r="1.1"/><circle class="cls-16" cx="13.41" cy="17.32" r="0.36"/><circle cx="9.61" cy="15.86" r="1.1"/><circle class="cls-16" cx="9.57" cy="15.86" r="0.36"/><circle cx="7.63" cy="19.36" r="1.1"/><circle class="cls-16" cx="7.59" cy="19.36" r="0.36"/><circle cx="5.67" cy="13.99" r="1.1"/><circle class="cls-16" cx="5.63" cy="13.99" r="0.36"/><circle cx="4.09" cy="9.77" r="1.1"/><circle class="cls-16" cx="4.05" cy="9.77" r="0.36"/><circle cx="2.14" cy="4.31" r="1.1"/><circle class="cls-16" cx="2.1" cy="4.31" r="0.36"/></svg>